<svg version="1.1" preserveAspectRatio="none" xmlns="http://www.w3.org/2000/svg" width="500" height="500" viewBox="0 0 500 500"><rect width="100%" height="100%" fill="#F5F5F5" fill-opacity="1"/><svg viewBox="277.4828 302.9231 582.523 120" width="333" height="68.59814977262701" x="83.5px" y="215.7009px" xmlns="http://www.w3.org/2000/svg" xmlns:xlink="http://www.w3.org/1999/xlink" preserveAspectRatio="none"><defs></defs><style>.companyName {fill:#08376B;fill-opacity:1;}.icon1 {fill:#35C0ED;fill-opacity:1;}.icon2 {fill:#9AEBA6;fill-opacity:1;}.icon3 {fill:#2F90B0;fill-opacity:1;}.icon3-str {stroke:#2F90B0;stroke-opacity:1;}.shapeStroke-str {stroke:#08376B;stroke-opacity:1;}</style><g opacity="1" transform="rotate(0 277.4828 317.9231)">
<svg width="152.4528" height="90" x="277.4828" y="317.9231" version="1.1" preserveAspectRatio="none" viewBox="19.59999656677246 52.800010681152344 159.8001251220703 94.33744049072266">
  <g transform="matrix(1 0 0 1 0 0)"><g><path d="M178.3 106.7c-.3.4-.3.5-.3.5.3-.4.5-.6.3-.5z" data-color="1" class="icon1"></path><path d="M171.8 103.7c-.1-.1-.3-.1-.4-.2l.4.2z" data-color="1" class="icon1"></path><path d="M147.2 139.6l1.2-.4c0-.1-.6.2-1.2.4z" data-color="1" class="icon1"></path><path d="M132 145.1l-.2.1h.6c-.2 0-.3 0-.4-.1z" data-color="1" class="icon1"></path><path d="M139 143.3c0 .1.1.1.2.1-.1-.1-.1-.1-.2-.1z" data-color="1" class="icon1"></path><path d="M157.8 99.5c.4 0 .2 0 0 0z" data-color="1" class="icon1"></path><path d="M88.6 67.3c.6-.5.3 0 .1.5s-.3.9.5.1c-.2.1.6-2-.6-.6z" data-color="1" class="icon1"></path><path d="M147.6 82.8c-.1.1-.1.2-.2.3.1 0 .1 0 .2-.3z" data-color="1" class="icon1"></path><path d="M149.3 99.8h-.6.6z" data-color="1" class="icon1"></path><path d="M145.3 70v.2c0-.3 0-.5-.1-.8v.4l.1.2z" data-color="1" class="icon1"></path><path d="M135.3 69h.3l.4-.2-.7.2z" data-color="1" class="icon1"></path><path d="M179 104.9c-1.3-.1-1.6-.1-1.4 0 .5.2 1 .3 1.5.4-1.6-.3-3.1-.5-4.4-.8l-.8-.2-.6-.2c-.5-.1-1-.3-1.4-.5.3.2.6.5.2.4-1.5-.6-1.9-.6-2.1-.6-.3 0-.4.1-1.5-.2-1.2-.7.6-.5-1.6-1-1.3-.6-.2-.5.4-.5-1.7-.4-3.4-.9-5-1.6l1.1.1c-.7-.1-1.2-.2-1.8-.3l.6.5c-.6-.2-1.2-.3-1.2-.4-.7.1.4.6-1 .7-.8-.3-2.7-.2-2.9-.7 2.7.5-.2-.5 2.1-.2-.6 0-1.1-.1-1.7-.2-.1-.1.1-.1.3-.1-1.3-.4-1.6-.3-2-.1-.6.3-1.4.4-2.1.2.4-.2-.6-.5-1.1-.5 1.1.1.5.4-.5.6-.9-.1-1.9-.1-2.8.1l1 .1c-.8.2-1.6.4-2.4.3-.1-.2 1.1-.2.7-.2-.3.1-.7.2-1.1.2h-.5c-.1 0-.2 0-.4-.1s-.4-.1-.6-.1h-.6c.1-.2.3-.4.4-.5.1-.1.3-.2.4-.3-.1-.1 0-.2 0-.3 0-.1.1-.2.2-.3v-.1l.1-.2c.1-.2.1-.3.1-.5.1-.4.2-.9.2-1.4-.4.6-.4.7-.4-.9-.1.6-.1 1.2-.2 1.8l-.1.9v.5c0-.1 0-.2-.1-.3v-1.8c-.1.5-.2 1.1-.2 1.7 0 .3 0 .5-.1.8-.2-.6-.1-.6-.4-.2.1-.1.2-.3.2-.4 0-.1.1-.1.1-.2s0-.2.1-.3c.1-.4.1-.8.1-1.1 0-.8.1-1.6.4-2.4l.8.2c.7-2.6.1-4.7.4-8.2 0 .4-.1.7-.2 1.1-.3-.5 0-2.1-.2-3.2.3.1.4-.6.5-1.1-.2.1-.2-2.5-.8-2.8.1-.5.1-1 .2-1.6-.2-2.8-1.3-3-1.6-5.6.4.7.4-.5.9 1.2-.2-.8-.2-1.6-.4-1.6 0-.5-.1-1-.3-1.4-.1-.3-.1-.6-.2-.9v-.9c-.3-.6-.5-1.2-.5-1.9 0-.1.1-.1.1-.1-.1-.2-.1-.5-.2-.7-.1-.3-.2-.4-.3.3.1-.5.2-1 .2-1.5 0-.1-.1 0-.1 0h-.1l-.3.1-.6.3c-.4.2-.9.4-1.4.6l-1.5.7-1.1.5c-1.3.6-2.6 1-4 1.1-1.9.7-3.7 1.6-5.5 2.4.1-.1-.1-.1.3-.2-2.3.8-1 1.3-3.5 2.3-1.4.3 1.2-.9.3-.6-.4-.3-1.1.1-1.9.7-.8.7-1.7 1.2-2.7 1.6l.3-.3c-.8.4-1.5.9-2.1 1.5l-1.1 1.1c-.4.4-.9.8-1.1.9 0 0 0-.1-.1-.1-.3.6-.7 1.1-1.2 1.6-.2-.3-.4-.7-.6-1.2l-.8-1.6c.6.5.6.9.7.3-.4-.9-.4.5-1.3-1.3-.1-.7-.5-2-.3-2.4.3.6.5 1.1.8 1.7.1-1.1-1-2.2-1.4-3.1h.3c-.5-.9-1-1.7-1.7-2.4-.7-.8-1.3-1.6-1.8-2.5v.4c-1.4-1.1-.5-1.4-1.8-2.5l.2-.7c-.6-.6-1.2-1.3-1.9-1.9l-1.2-1.2-1.1-1.1c.6.4 1.3.9 1.8 1.5.7.6 1.4 1.3 1.9 1.8-.8-1.2-1.8-2.2-3-3.1.4.3.7.6 1 1-1.5-1-2.7-2.2-3.7-3.7.4-.1.1-.7-.3-1.4-.7-1-1.7-2.5-2.7-3.8-.8 1.1-1.7 2.2-2.8 3.1l-.2.1-.2.3-.4.6c-.3.4-.5.8-.8 1.2-.6.8-1.2 1.5-1.8 2.2l-1 1.1c-.4.4-.7.8-1 1.2-.7.8-1.4 1.7-2 2.6.8-.4.6-.1.3.3s-.6 1-.2 1.1c-.2.5-.5.9-.9 1.3l.1-.2-.2.2c-.7.8-1.4 1.6-2.1 2.5-.6.5.3-1 .1-1-1.2 2-.8.7-1.8 1.9.4-.1 0 .9-.7 2.1l1.2-1.5c-.3 1-.8 1.9-1.5 2.7-.3.3-.5.6-.7 1-.1.2-.2.5-.3.7-.1.1-.1.3-.2.5l-.1.3v.2-.5l.1-.5c-.1.2-.2.5-.3.8-.1.2 0 .2-.1.2v.1c0 .1 0 .2-.1.4h-.3c-.3 0-.5 0-.7-.1-.2-.3-.3-.7.3-.3-1.7-1.3-3.5-2.4-5.4-3.4-1.9-1-3.7-1.8-5-2.7l.4-.1c-.7-.1-1.5-.4-2.1-.8.1-.1.4-.1 0-.2-1-.2-1.9-.5-2.9-.9l.9.1c-1.5-.7-3-1.2-4.6-1.4-.7-.1-1.3-.3-2-.4-.3-.1-.7-.2-1-.3-.1 0-.4-.2-.7-.3-.3-.1-.5-.2-.8-.3 0-.2-.4-.6-1.1-1.1s-1.8-1.1-2.8-1.7c-.1 1.2-.1 2.7-.2 3.7l-.1-.2c0 .5 0 1.1-.1 1.6l-.1 1.2-.1 1.4c-.1.9-.1 1.8-.2 2.7-.2 1.9-.3 3.8-.4 5.9-.5 1.9-.8 3.9-.8 6 0 2.4.1 5.1.2 7.2 0-.7.5 0 .7.8 0 1 .9 2.6.3 2.6l-.1-.4c-.2.6-.2 1.3-.1 1.9v.4l.1.2c.3.2.6.4.9.7l-.1.1s0 .1-.1 0l-.4-.2c-.2-.1-.5-.1-.7-.2h-1.7c-.6 0-1.3 0-1.9.1-2.5.1-4.7.4-5.9.1-1 .3-2.2.5-3.2.8v-.4c-1.4.2-2.4.3-3.5.6-1.3.3-2.6.7-3.9 1.1.2-.2.4-.3.6-.5-1.9.5-2 1.8-3.7 2.4l-.7-.4c-1.1.4-2.3.6-3.5.8l-1.5.3c-.6.1-1.1.2-1.7.2-1.2.1-2.4.3-3.4.4 1 1.2 2 2.4 3.1 3.5-.2-.1-.5-.2-1.1-1 .6.8 1.2 1.6 1.7 2.4l.2.4.1.2.2.4.2.4c.1.1.1.2.1.2.6 1.1 1.1 2 1.4 1.5-.2.1.2.9.8 1.8.3.5.7 1 1 1.4l1 1.2h-.5c.6.5 1 .8 1.3 1.1.5.5 1 1 1.4 1.6.2.4 0 .5-.3-.1.8 1.5 1.1.9 2.1 2.6l-.7-.5c.4.8 1.1 1.4 1.9 1.8.8.8 2 2.6 2 3 .3.1.5.2.8.4.4.3.7.6 1 .9 0 .2-.3 0-.5-.1.4.5.8 1 1.3 1.4.4.4.8.7 1.2 1 .8.5 1.5 1.2 2.1 1.9 0 .1 0 .3.1.4-1-.8-2-1.7-3-2.7-.3.3 1.1 1.6-.4.9.7.4 1.5 1 2.5 1.5.5.3.9.6 1.3.9l1.2.9c.1.1.1.2.1.2l-.2-.1c.3.3.6.5 1 .7.4.3.8.7 1.2 1 0 .2.4.5.9.9.5.3 1.2.7 1.6.9.1-.4 1.2.3.3-.6.1.1-.2-.1-.7-.4-.1-.1-.2-.1-.4-.2h.1c-.5-.3-1.2-.8-1.9-1.3.8.3 1.6.7 2.2 1.3.5 0 1.1.1 1.4.1.5.7 1.1 1.2 1.7 1.8.5.4.9.8 1.3 1.3l2.1.9c.7.3 1.5.6 2.2.8 1.2.5 2.5.7 3.9.7.8.1.8.5 1.1.7-.4-.1-.8-.1-1.3-.2.8.1 1.9.4 3 .6.4.1.9.2 1.3.2.2 0 .4 0 .6-.1.6.3.3.3.1.4-.2 0-.2.1.5.2-.1 0-.2 0-.4.1.4.3 1 .6 1.5.6l1.5.2.5.1h.3l-.1.1 7 1c.5-.1.9-.2 1.3-.3.1 0 .2 0 .2-.1l1.4.1c1.2.5-.4.8 1.3 1.4.7.1 2 0 1.8-.3-.3-.1-.6-.4-.6-.6l.6.1c.3-.6 1-1.1-.4-2l-1.2.1-.2-.4.9.2c-.4-.4-.8-.3-1.2-.2 0-.2-.2-.4-.3-.5l-1.2.3c-.1-.3.6-.4-.1-.7-.6.2.3.7-.5.7-.4-.4-.2-.6-.9-.5 0-.2.1-.3.4-.3-.6.1-1.4-.3-1.7 0-.4-.5-1.7-.4-1.5-1-.5.1-1 .2-1.4.1.5-.2.1-.4-.3-.6-.5-.2-1-.5-.7-.8-.5.1-1.1.1-1.6-.2-.6-.3-1.2-.5-1.8-.7.1 0 .2-.1.3 0l-.9-.9c-.3.4-1.3 0-1.9 0-.4-.9.7-.3.8-.9-.2.4-1.4-.4-1.4.1-.3-.6-.3-.4-.3-1-.5.5-.5-.2-1.2-.2-.5-.8.2-.6-.6-1.1-.2-.5.6-.1.6-.1-.7-.6-.7.1-1 .2-1-.6-.2-.6-.3-1.1-.6-.4-1.3-.4-1.7-.8 0-.1 0-.2.1-.2-.5-.2-.9-.5-1.2-.9-.4-.4-.8-.8-1.3-1v-.2c-.1.2-.2.4-.5.6-.3-.3-.8-.4-.6-.8.2.2.3.1.4.2l-.4-.3c.1-.6.5.4.8.1-.7-.6-1.7-1.2-2-1.8.3-.4 1.1 1.2.9.2.2.3.3.6.5.9.1-1.1.4.5.5-.6-.3-.4-.6-.8-.9-1.1-.4-.3-.7-.7-.9-1.2-.4-.1-.3.3-.7.2-1.5-1.4.2-2-1.1-2.8-.5-.2-1.1 0-1.3-1.1h.7c-.6-1.2-1.1-.3-1.4-1.7.3.1.6.9.6.7 0-.5-.2-.6-.3-.7-.1 0-.2-.1-.3-.1-.1 0-.1-.1-.1-.1l-.2-.3.3-.4c-.1-.1-.2-.3-.3-.4.8-.2 1.6-.4 2.5-.7.6-.2 1.1-.3 1.6-.4.5-.1 1-.2 1.5-.2l.6-.6c.2 0 .4.1.2.2.8 0 0-.3.3-.5.4-.1.6.1.4.3 1.2-.7 3.6-1.5 5-1.1l-.3.2c1.1.1 1.2-1 2.2-.6l-.2.1h4l1.1.1c.7.1 1.4.2 2.2.3-.1-.7-.2-1.3-.2-2-.4-.7-.7-1.4-.7-2.2 0-.2-.1-.4-.1-.6l-.1-.2c0-.1 0-.1-.1-.2-.1-.2-.2-.3-.4-.3.3-1 .4-1.9.5-2.9 0-.5-.6-.7-.7-1.3h.4c-.2-.3-.3-.6-.5-.8l.5-.5-.1-.6c0 .2-.2.5-.3.5-.2-.9.4-2.2.6-2.2-.1-.7-.1-1.5-.2-2.2.2.1.2.4.3.7-.3-1.2.5-.2.2-1.2-.1.1-.2-.1-.3-.1.2-.3.3-.7.4-1.1.1-.5.2-1 .2-1.5l.3.2c.1-.4.2-.9.2-1.3l.1-.7v-.2.4c0-.2-.1-.4-.1-.5l-.1-.1c-.3-.3-.5-.6-.6-1 0-.1 0 0 0 0 .2.2.3.5.5.7 0-.1-.1-.3-.2-.4-.1-.1-.1-.2-.1-.4.3.2.5.6.5 1 0-.1.1-.1.1-.1.1.2 0 .2.1.5 0-.2.1 0 .1.1s0 .2.1-.1v.1c.7.3 1.5.5 2.3.7.6.1 1.2.3 1.8.6.2-.4.7-.1 1.2-.2.9.5 1.9 1.3 3 1.9.9.3.4-.2.9-.2-.1.3 1 1 .3.9l1.6.9.8.4c.5.2.9.5 1.3.8-.2-.4-.5-.6-.2-.6.4.3.9.9.8 1.1l-.1-.1c1 .6 2 1.4 2.8 2.3.5-1.1 1.2-2.4 1.8-3.8l.7-1.4c.1-.3.2-.7.2-1v.1c.1-.6.3-1.2.5-1.8.5-.7 0 .6.5.1.4-2 1.7-2.6 2.3-4.1.8-.2 1.4-1 2.2-2 .4-.5.8-1.1 1.1-1.5.3-.3.7-.8.8-.8l-.1-.1c-.1-.3.2 0 .2.1-.1-.2-.2-.2-.2-.3l.3-.6c.1.2.3.4.4.6l.1.2.3.5.7 1.1 1.4 2.1c.4.7.8 1.3 1.2 2 .7 1.2 1.5-.1 2 1.7l-.7-.2c.9 1.1 1.7 2.3 2.2 3.6l.4 1 .1.3c.1.2.1.3.2.5l.4.9c.5 1.2.9 2.5 1.4 3.4l.1-.1c-.1.1-.1.2-.2.2s-.2 0-.3-.3c0 .3.1.6.2.8.6-.5 1.2-1 1.8-1.6.4-.3.7-.7.9-1.2.6-.4.2.2.6 0 .3-.2.5-.3.7-.6l.4-.4.2-.2c.2-.3.4-.5.6-.4v.2c.3-.4 1.3-.8.9-1 1-.4 1.6-1.2 2.4-1.4.3-.7 1.7-.6 1.5-1.2.2.6 1.8-.3 2.3-.8-.1.3.6 0 .5.3.7-.3 1.3-.6 1.1-.9.7.1 1.5-.1 2-.6.1-.1.3-.2.4-.3l.2-.1h.1c.1 0 .2.1.2.3.2-.2.4-.5.6-.6.1.2.2.3.2.5l.1.4.2 1c-.2 0-.3-.1-.3-.4 0-.1-.1-.2-.1-.4l-.1-.3c0-.2-.1-.3-.4-.1 0 0 .1 0 .1.1l.1.1.1.2c.1.4.3.8.4 1.2s.3.8.4 1.2c.1.4.2.8.2 1.3s-.3-.2-.5-.4c.6 1.8.4 3.6.8 5.3-.1 0-.1-.2-.2-.4 0 .3-.1.8.2.7l-.1-.3c.4-.6.9 1.3 1.1 1.4-.8-.6-.3 1.7-1.3.7 0 .2.2.5.4.5-.1.3-.2.4-.4.1.1 1.2.4.8.3 1.9-.1 0-.2-.2-.3-.4.3.6.4 1.4.2 2.1-.1-.1-.2 0-.2-.2 0 .4-.1.7-.1 1.1v1.4c0 .5-.1.9-.2 1.4-.1.6-.3 1.1-.5 1.6-.3 0-.4.2-.5.5.3 0 .8 0 .6.3l1.7-.3c-.1-.1-.3-.1-.4-.2 1-.2 2.1-.4 3.2-.4l-.3.1-.4.1.9-.1c.3 0 .5 0 .8-.1-.3-.1-.6-.1-.9-.2.8-.3-.1-.7 1-.5-.2.1.8 0 1.2.4.5-.2 1-.3 1.5-.1.1.2-.2.6-.1.7.4-.4 1.9.1 2.5-.3-.2.1-.2.3-.2.4l.4-.3c.4.2.4.2.3.4 1.1.3-.2-.7 1-.2-.1 0-.1.1-.3.1 1.3.2 2.5.5 3.8.9.2.6-1.1-.2-.8.4.9.2 1.8.3 2.7.5 1 .2 1.9.4 2.8.6l-.3-.1c.3-.5.9.1 1.5.4 0 .1-.1.1-.1.2-.1.3-.3.5-.4.8l-.2.4c-.1.2-.1.3-.2.5v-.4c-.1.1-.2.2-.2.3l-.2.3-.3.6c-.2.4-.4.8-.7 1.1.1.3-.2.7.2.6-.5.4-.9.8-1.2 1.3-.3.5-.5 1-.8 1.5-.3 1-1 1.9-1.9 2.5.2-.2.2-.6.1-.4-.3.5-.6 1-1 1.5.3.1.3-.1.7-.2 0 .4-.2.8-.5 1.1.4-.8-.4-.3-.8-.2.1 0 .1.2.2.2-1.1.3.4.6-.8 1.2l-.1-.2c-.2.4-.5.9-.8 1.2-.4-.1.2-.5 0-.7-.5.5-.5 1.5-1.3 1.7.2-.3.5-.6.6-.9-.5.1-.9.3-1.2.6l-.6.3c.1-.1.2-.1.3-.2l-.7.4.3-.1c0 1.4-1.3 1.3-1.9 2.5.6-1.2 0-.4-.2-.8-.3.1-.8.2-.7.1-.3.6-.9.3-1.3 1.2-.1-.1-.5.3-.6-.1-.6.5.3.1.3.3-.5.5-1.1.8-1.7 1-.8.2-1.5.6-2.1 1.1-1.2.8-1.2 1.4-2.4 2-.5-.1.2-.6.2-.6-.7 0-1.3.2-1.9.6.1-.2-.1-.2-.3-.3-.5.2-.2.6-1 .6.1-.3.2-.5.4-.7-.6.3-1.2.7-1.8 1-.2-.2.3-.5.5-.7-.7.3-1.9.7-2 1.2h.4c-.1-.1-.1-.3.1-.4.6-.5.9-.1 1 0l-.4.2c.7.7 1.8-.6 2.8-.8l-.2.7.8-.7c.2.1.5.4 0 .6.8.1.5-.4 1.2-.2.1 0 .1.1 0 .1l-2.2.8c.4 0 .9-.1 1.3-.2.3-.1.7-.2 1.5-.3 0 .1-.1.2-.3.4-.1.1-.3.2-.4.2l-.1.1h.2l.3.1-.7-.1h-.9c-.1 0-.2 0-.3.1l-.2.1c-.2.1-.3.1-.5.2.3-.1 1.1 0 1.5-.1-.1.1.2.2.5.2h1.2l1.4-.6h-.4 1.4c.4 0 .9 0 1.3.1l-.4-.1h-.1c-.1 0 0 0 0 0l.2-.1c-.4 0-.5-.1-.1-.3.3 0 .6.1 1 .1.3-.2.7-.3 1-.5.6-.3 1.2-.5 1.9-.5-.1-.2-.5-.3-.9-.5-.3-.2-.5-.3.8-.8.2.2.3.5-.2.7.3-.2.7-.3 1.1-.4l-.4.3-.3.3c.2 0 .5-.1.6-.3.1-.1.1-.2.6-.3.1.3.7 0 .6.3-.4 0-.7.1-1.1.3.8-.2 1.7-.3 2.6-.2-.1-.1-.1-.4.6-.6 1.8-.5.7.1 1.8 0 .4-.3 1.6-.5 1.5-.9.3-.1.6-.1.9 0 .4-.3 1.5-.7 2.2-1.1.8-.4 1.3-.8.7-.7l-.2.1.1-.1 2.1-1.2c.7-.4 1.4-.7 2.2-1.1l2.2-1.2c.7-.4 1.4-.9 2-1.3l.1.1c1.5-1.1 2.9-2.3 4.1-3.7.4-.3 1.1-.7 1.1-.4.5-.5.7-.8 1.1-1.2.2-.2.4-.3.6-.6s.5-.5.9-.8c-.8 1.2.5-.2-.9 1.2.7-.6 1.2-1 1.6-1.4.5-.5 1-1.1 1.3-1.8-.2.7 1.3-.7 1.8-1.5-.3.3-.7.6-1 .8.6-.7 1.1-1.4 1.7-2h.1l.1.5c.7-.6 1.3-1.3 1.8-2.1.5-.7.9-1.5 1.2-2.2.6-1.4 1.5-2.7 2.6-3.8.2-1-1.3 1.7-1.1.7.3-.5.7-.9 1.1-1.4l.2-.2c.1-.1.2-.3.4-.4.4-.4.8-.8 1.1-1.3.5-.7.8-1.4.9-2.2l.1-.5v-.1c0-.1.1-.2.1-.2.1-.2.2-.4.3-.5.1-.1.1-.2.2-.3.1-.2.2-.3.4-.5-.1.1-.3.2-.4.2 0 0 .1 0 .1-.1.1-.2.1-.4 0-.5v-.1c.1-.3.3-.6.5-.9.5-.6 1.1-1.2 1.8-1.7.5-.3.7-.3.3.4-.4.5-.6.8-.7.8-.4.6-1 1.6-.2.7v-.3c.5-.5 1.4-1.6 2.1-2.4-.3-.3-1.1-.5-.4-.5zM46.9 137c.1 0 .1 0 0 0 0 0-.1.1-.2 0-.5-.3-.7-.5-.7-.6.3.1.6.3.9.6zM176 106.9l-.2.2v-.1h-.1c.1-.1.1-.1.3-.1zm-.9.8l-.1.1c-.2 0-.3-.1-.5-.1-.4-.2-.9-.3-1.4-.4l.5.2c-.4 0-.8-.1-1.2-.2 0-.1.5.1.3 0-.6 0-1.4-.5-2.3-.5-.4-.1-.1-.2-.4-.3-.3 0-.5 0-.7-.1.6 0 .7-.4 1.4-.3l.3.3c.3 0 .6.1.9.1 0 0 .1.1.1.2l1 .2.5.1h.3s0-.1-.1-.1c.2 0 .5.1.8.1h1.1c-.2.3-.3.5-.5.7 0 0-.1 0-.1-.1 0 .1.1.1.1.1zm-8.4 3.8c-.4-.3.5 0 .2-.1 0-.4-1.2-.3-1.8-.7h.2c-.7-.2-1.4-.3-2.1-.3v-.1c-.8.1-1.6.1-2.4.1.2-.2.4-.1.2-.2-.4 0 .1.3-.6.3-.2-.1-.8-.2-.8-.3h.7c-.4-.2-.9 0-1.2 0v-.1c-1 .1-1 .3-2.1.4l.1.1c-.6.3-.5-.1-1.1.1l-.2-.2c-.4.1-1.3.4-2 .5.5-.2 1.1-.4 1.7-.6-.5 0-1 .1-1.5.3.2-.1.3-.1.5-.1-.6.3-1.2.5-1.8.5 0-.5-2 .2-2.6-.1-.6.2-1.3.3-1.9.4.3-.1.7-.3 1.1-.4.9.1 3-.6 4.4-.6-.2 0 0-.2.2-.3.3 0 .9-.3.9-.1h-.1c.3.2 1 .1 1.5 0v-.3c1.5.4 3.7-.3 4.5.2.3-.1.8 0 1.1-.1v.2l2.6.3-.2.1c.6.1.9-.4 1.5-.3l.1.3c1.1.2 2.2.8 3.4.9 0 0-.1.1-.3 0 .5.2 1.9.9 1.9.5-.1.2 1 .4 1.6.6v.1c-.1.4-.2.7-.4 1.1l-.2-.1c-.5-.3-1.1-.6-1.5-1-.7-.3-1.4-.5-2.1-.7.1 0 0-.1.1 0-.9-.4-.7.2-1.6-.3zm-24.6 3c-.2.1-.4.1-.6.2v-.1c.2-.1.3-.2.5-.3.5-.2-.1.1.1.2zm-6 .4l.1.2c-.1 0-.4 0-.4-.1-.4.2.2.1 0 .2h-1.1l.1-.1c.6.2.5-.3 1.1-.4.1.2-.4.4.2.3-.2-.4.8-.4 1-.7-.3-.2.5-.6.8-1 0 0 .2 0 .4-.1v.1l.1-.1v-.1l.2-.1-.1.1c.1.2.1.4.3.4l-.1.1c.2 0 .3-.1.3 0-.2.2-.5.2-.6.1-.3.3-.7.5-1.1.8-.1 0-.1.1-.2.1l-.1.1-.1.1v.1h-.8zm33.6-8.1c-.5 0-.4 0-.2.2-.7-.3-1.3-.1-2.1-.3l-.1-.4c-1.2-.1-2.4-.2-3.6-.2l.5.1c-.1.1-.9 0-1.4 0 0-.1-.3-.2-.6-.3.1.1-1.1 0-1.1.2l-.6-.1h.1-.3c-.3 0-.6 0-.8.1l-.1-.3c.9.2 1.8.2 2.7.1h.3c.8-.1 1.6-.1 2.4.2.4-.1.9 0 1.2-.1l.1.2c.6.1 1.2.1 1.8.2.3.2.3.1-.4.2.5 0 1.1.1 1.6.1-.3 0-.7 0-1 .1.7-.1 1.3-.1 1.6 0zm4.8 2.7h-.2v-.1c.1 0 .1 0 .2.1zm.1-1zm-.1-.1zm-.9 3.2c-.1 0-.1-.1-.2-.1l.2.1c0-.1 0-.1 0 0zm-36.3 1.2c.2-.1.5-.2.7-.2-.1.2-.2.5-.6.6l.4-.4h-.5zm-.4.2l-.7.3.2-.1c.3.7-.7.7-.8 1.3.2-.6-.1-.2-.4-.4-.2.1-.5.1-.6 0v.1h-.1c.1-.2.4-.1.6-.2-.1-.1-.4.1-.3-.1.8-.5 1.6-.9 2.5-1.2-.1.2-.3.3-.4.3zm4.8-5.8c.3 0 .6 0 .9.1-.3-.3.3-.2.4-.5.7 0 .5.2 1-.1.3 0 .2.1.1.2-.2.1-.4.1-.6.2-.5.3 0 .2-.1.4-.2-.1-1.1.2-.8-.1-.4.1-.7.3-.9.4-.4-.2.4-.5 0-.6zm6.2-1.8h.1c-.2-.1-.3-.2-.4-.3.3-.1.5-.2.7-.1-.2 0-.2.1-.2.2l.3-.1c.5.2-.4.2-.2.3.6-.2 1.2-.4 1.8-.5.3.2-1.1.2-.3.3h-.9c.1 0 .2.1.3.1-.3.1-.5.1-.8.2-.1 0-.2-.1-.3-.1.2.1-.2.2 0 .2-.5.1-.9.3-1.5.4.2.2-.3.2-.4.5-.6.1-1.3.2-2 .3.2-.1-.2-.2-.2-.4.7-.3.5.1.9.1.4-.2.5-.5.9-.6.1 0 .2 0 .1.1.4-.2 1.7-.2 2.1-.6zm17.3 2.2h1.1l.3.1c-.7 0-1.3.1-1.9 0l.5-.1H164c-.4-.1-.8-.1-1.2-.2 1.4-.1 2.7-.1 4.1 0 0 .3-1.9-.1-1.7.2zm-20.7 3.6c-.8.2-1.7.5-2.5.8-.6.3-.1.2-.3.4-.1-.1-.9.3-.6 0 0 .1 0 .1.3 0 .2-.3-.4-.1 0-.4.1 0 .1 0 .1-.1.2 0 .3.1.5-.2.1 0 0 .1-.1.2.2-.2.7-.4.8-.7.1 0 .2-.1.3-.1h-.1c.1-.1.3-.1.4-.2.2 0 .3-.1.5-.1h.5c-.1-.1-.2-.2 0-.2.5-.1.4 0 .6 0 .1.3-.2.4-.4.6zm-2.3-1.7v.1c.2-.1.2-.3.6-.3 0 0 0 .1.1.1l.1-.1c0 .1.3.2-.1.4-.4 0-.7 0-1.1-.1.1 0 .2 0 .4-.1zm3.9-1.6c.2.1.4.2.7.1-.5.1-.9.4-1.6.6l-.1-.1c-.6.4-1.2.7-1.9 1 0-.2.2-.2-.1-.3l.6-.3-.1.2c1.3-.2 1.5-.8 2.5-1.2zm10.7 0c-.5.1-1 .1-1.5.1-.1 0-.1-.1-.1-.1.5 0 .9 0 1.4-.1h.1c0 .1.1.1.1.1l.6-.3c.2.2-.5 0-.5.2.4 0 .8-.1 1.1-.1h.5c.1.1.2.1 0 .1h-.4c.1 0 0 0 .2-.1-.4.1-1 .2-1.5.2zm-13.1 3h-.2.2zm7.9-2c-.1 0-.1 0 0 0zm-4.7-.8h.1c.3 0 .6-.1.8-.1-.3.1-.6.1-.9.1zm14.7-.6c-.1 0-.2 0-.3-.1.1 0 .2 0 .3.1zm-3.3-1.1c.2-.1-.1-.2 0-.3h1.1c-.3.2-.7.3-1.1.3zm-1.6-.1h.3-.3c0-.1.1-.2.3-.3.4 0 .9-.3 1 0h-.1c.1 0 .1 0 .2.1-.1 0-.1 0-.1.1-.3-.1-.9.2-1.3.1-.1.1 0 .2-.4.3-.1 0-.1-.1-.1-.1 0 .1-.5.2-.1.3-.7-.1-1.4 0-2.1.1h-.2.1l-.3.1c-.5 0-1.1 0-1.6.1-.8.1-1.5.3-2.2.5h-.1l-1 .2s-.1 0-.1-.1c1.2-.3 1.9-.7 3.1-1.1 1.3.2 3.3-.2 5-.3zm-19.1 3.1c.2-.1.4-.2.6-.2l-.6.2zm-.5.2zm1.1 2.9c.1 0 .3-.1.4-.1-.1.1-.2.2-.4.3-.1 0 0-.1 0-.2zm2.9-.3c.1 0 0 .1 0 .2l-.2.1.2-.3zm-3.5 2.5c0-.1 0-.1 0 0zm11.9-5.1c.2 0 .3 0 .5-.1 0 0 .1 0-.1.2-.3 0-.4-.1-.4-.1zm.5-.1c.1 0 .2 0 .3-.1 0 .1-.1.1-.3.1zm10.4-1zm2.7.1zm9.9 4c-.2.2-.3.1-.3 0h.3zm-5.3-4.7c.3-.2-.4-.2-.7-.3.7 0 1.5 0 2.2.2.4.1-.2.1-.4.1.4 0 .8.1 1.2.1-.7.1-1.5 0-2.3-.1zm1.1-1.6h.6l-.2.1c-.1 0-.3 0-.4-.1zm-16.6-.9l-.4-.2c-.1.2.5 0 .1.3-.5.1-.6-.2-.3-.3l-.2.1c-.1-.1-.2-.1-.1-.2.4-.1.7-.1 1.1 0l-.5.1c.6-.2.7.1.3.2zm-10.7 2.4c-.5.2-1 .5-1.4.7.2 0 .4 0 .4.1-.2.1-.6.1-.7.1-.5.3-1 .5-1.5.6.1-.4 1.1-.7 1.5-1.1 0 0 0 .1-.1.1.3-.1.6-.1.9-.2-.2-.2.1-.5.3-.7.1 0 .2-.1.2-.1.6.1.1.4.4.5zm32.6 2.2c-.1.5-.2.8-.4 1.3 0 0 0 .1-.1.2-.2-.2-.5-.3-.8-.2-.4-.1-1.1-.6-1.1-.8-.3.1-.6 0-.8-.2 0-.1.1-.1.2 0-.9-.5-1.5-.4-2.1-.8 0-.1 0-.1-.1-.1.8.3 1.4.6 1.3.6.1-.2-.6-.4 0-.4-.7-.1-1.4-.2-2.1-.5 0 0 0-.1-.1-.1h.1c.9.1.3-.1 1.2-.1.6.2-.1.3.8.3.6.1.2.2 0 .3.8 0 1.5.1 2.2.3h-.5.8l-.3-.2c.3.1.5.1.5.1.3-.1-.3-.3.3-.4.3.1.8.1 1.1.1v.1c-.8-.1.4.2-.6.2h.5c-.1.1-.1.2 0 .3 0-.1.1-.2.1-.3h.1-.1v-.1h.2c-.1.3-.2.3-.3.4zm1.1-2.1h-.2l.1-.1c.2.1.2.1.1.1zm-8.7-3.6s-.1 0-.1.1c-.6 0-1.1-.1-1.6-.4.6.1 1.1.2 1.7.3zm-3.7-.8c-.1.1.1.2-.5.1.9.2 1.6.3 2.4.4-.3.1-.6.2-.9.1-.1-.1.1-.1.1-.1-1.3-.2-1.8.1-2.7-.2 0-.1-.1-.1-.2-.1 1 .1 1.8.1 1.7.1-.1-.2-.9-.3-.3-.4-.8.2-1.6.2-2.4.2 0 0-.1 0-.1-.1h.1-.5c-.2 0-.4-.1-.7-.1-.4-.1-.9-.2-1.4-.1.1.2-.4.1.2.3h1.5c-.3.1-.7.1-1 0-.1.1-.3.2-.4.3-.7-.3-1.8-.4-2-.6-1.1.1-2.8.1-3.2.5-.2 0-.4 0-.5-.1 1.8-.4 3.6-.7 5.4-1 .8-.1 1.5-.1 2.3 0 0 .1-.5.1-.7.3 1.2 0 2.5.1 3.8.5zm-4.1 0h-.5s0-.1.1-.1c.2 0 .3 0 .4.1zm-5.3-2.1c-.4.2-.2.4.2.5-.6 0-1.1-.1-1.7-.1.5-.2 1-.3 1.5-.4zm-78.2 44.2c.1 0 .1-.1 0 0v-.2h.8c.3.1.6.1.9.2h-1.7zm-22.7-24.3c-.1-.1-.1-.3.1-.3-.1.1.4.1.7.1l-.8.2zm50.6-31.9zm5.5 7.8c0 .1.1.1.1.2 0-.1 0-.1-.1-.2zm4 5.2c-.1 0-.1 0 0 0 .1-.2.4-.4.6-.6-.1.3-.4.6-.6.6zm7.8-4.9c.2-.1.4-.2.5-.3-.1.1-.1.2.2.2-.2 0-.5.1-.7.1zm3.3-1.3c.1-.1.3-.1.4-.2 0 .1-.2.1-.4.2zm13 19.6c-1.3-.4-1.2.6-2.5.4.2.2.3.6-.7.8-.9-.1-1.1-.7-.5-.8.2 0 .3 0 .3.1.3-.1.7-.1.3-.3l-.1.2c-.3-.1-.7-.1-1-.2h-.3v-.2c-.3.2-.2.3.1.4-.2-.1-.5-.1-.7-.1h-.5c0 .1-.2.3-.3.3h-.1v-.1c.3-.3.6-.6.9-1 .1 0 .2.1.4.1h.6c.2 0 .4-.1.6-.1l.6-.3c.1 0 .2-.1.3-.1-.1 0-.1.1-.1.2-.1 0-.2 0-.3.1h-.1l-.1.1c-.1.1-.1.2 0 .3.1.2.2.3.4.4.1 0 .2.1.3.1.1 0 .2.1.3.1h.6-.4c-.1 0-.2 0-.2-.1h-.1c-.1 0-.2-.1-.3-.1-.4-.2-.3-.4-.4-.5v-.1h.1v.2c0 .1.1.2.1.2.1.1.3.2.4.3.1 0 .2.1.3.1h1.7c.3 0 .5 0 .8-.1.1.2.3.3.5.3h.6c.3-.1.5-.1.7-.2.5-.2 1-.3 1.3-.5.2 0 .3 0 .5-.1v-.1s-.2.1-.4.1c.2-.1.4-.2.6-.4h-.1c.1-.1.2-.1.4-.2 0 0 .1.1.3.1.4-.1.1-.3.7-.3 0 .1-.1.2-.2.3.4-.1.8-.3 1.2-.5.2.1-.1.2-.2.3.5-.1 1.3-.3 1.3-.5h-.3c.2 0 .2.1.1.2-.3.1-.6.1-.8 0l.3-.1c-.4-.1-.8-.1-1.1.1 1.1-.5 1.9-.5 2.8-.9 1 .3 3.1-.7 4.3-.6l-.1-.1c.3-.2.4 0 .6 0-.1-.1-.4 0-.2-.1 2.7-.5 5.4-.7 8.1-.7 1 0 .5-.6 1.8-.4l-.3.2c1.9-.4 4 .2 5.9.5-.1 0-.1.1-.3 0 .5.2 1 .3 1.5.3.3.1 0 .1.2.2.4.2 1 .1 1.2.4h-.1c.3.1 1.1.4.9.2.5.3 1.1.4 1.5.7-.6-.1-1.1-.1-1.4-.4l-4.6-.7c.1-.3 1.6.3 1.6 0-1.4-.2-2.2-.1-3.6-.4-.4-.1.2-.1.3-.1-1.3-.2-2.6-.2-4-.2 0 0 .1-.1.3-.1-.2 0-.6 0-.5.1h.2c.3.1-.2.3-.6.4h-.4c-.2-.1-1.1 0-.6-.4-.2 0-.3.1-.3.2-.2 0-.3-.1-.1-.2-.3.1-.7.2-1 .3h-.1.1-.3c0-.1.1-.1.2-.2-.1.1-.3.1-.4.2-1.4 0-2.8.2-4.1.5-.1 0-.3 0-.4-.1l-.6.2h.2c-.1 0-.2.1-.3.1-.1 0-.3.1-.4.1-.2.1-.5.1-.7.1l.4-.2-1.1.2h.6c-.3.1-.2.2-.2.3-.2 0-.5.1-.7.1h-.6s0-.1-.1-.1h-.1v.2l.2-.1h.1c-.3.2-.6.3-.9.3-.1-.1 0-.3-.1-.3-.3.2-.7.3-1.1.4.1-.2.3-.2.4-.5.3-.1.5 0 .6.1 0-.1.5 0 .5-.2-.4-.1-.9-.1-1.3.2-.1 0-.1-.1-.1-.1-.2.2-.4.4 0 .6-.2 0-.3.1-.5.2.1 0 .1-.1.1-.2 0 0 .1 0 .1-.1h-.1l-.1.1h-.1.1l-.1.1c-.3 0-.3 0-.3-.1-.8.2.3.2-.6.3.1 0 0 0 .2-.1-.5.1-.9.2-1.3.4l-.7.2-.8.2c-.6-.1.9-.4.3-.4-.7.2-1.4.6-2 1h-.5.1s-.1 0-.1.1c-.1.1-.2.2-.3.2-.2-.1-.3-.2-.5-.3-.3.2.1.3.4.4l-.2.2-.1.1c-.7-.5-1.4-1-1.6-1.1zm22.8-2l-.1-.1.1.1c.1-.1-.1-.2.1-.3.3 0 .5.1.7.2-.1 0-.3.1-.4.1v-.1l-.4.1zm-.3 0c-.4 0-.8-.1-1.2-.2.3.1.7.1 1 .1.2 0 .2 0 .2.1zm-6.6.3l-.1-.1c-.2.1.3 0 0 .2-.3 0-.3-.1-.1-.2l-.4.1.1-.1c-.2.1-.4.1-.5.1.6-.1.3-.2.8-.3h.1c.5.1-.1.3.7.1h.2l-.7.1c.3-.1.2.1-.1.1zm11.5 2.9c.2.1 0 .1.1.2.2.2.7.2.8.3h-.1c.2.1.7.4.6.2.3.2.7.4 1 .6-.4-.1-.8-.1-.9-.4l-3.2-.7c.1-.2 1.1.3 1.1.1-.8-.2-1.4-.2-2.1-.3-.1-.1-.3-.1-.4-.1-.2-.1.2 0 .3-.1-.1 0-.3 0-.4-.1-.1 0-.2-.1-.2-.1h.1c-.4-.2-.8-.4-1.2-.5 1.3.1 2.5.3 3.7.6-.1 0-.1.1-.2 0 .3.2.6.3 1 .3zm1.6 5l-2.6-1.2c.1-.1.9.4.9.3-.8-.3-1.3-.4-2.1-.8-.2-.1.1 0 .2 0-.7-.3-1.5-.6-2.3-.8h.2c-.1 0-.3-.1-.3 0h.1c.2.2-.6.1-.6.2.3-.2-.7-.2-.3-.4-.1 0-.2 0-.2.1-.1 0-.2-.1 0-.1-.5-.1-.3.1-.8 0 0 0 .1 0 .1-.1h-.9s0-.1.1 0c-.7-.1-1.1 0-1.9-.2.2-.1-.3-.1-.3-.2h-.4l.2.1c-.3 0-.6 0-.9-.1h.3-.6l.4.1c-.3 0 0 .2-.4.1-.2 0-.4-.1-.5-.1-.2 0-.4.1-.6 0-.1-.1 0-.2 0-.2-.2.1-.8 0-1 .1l.1-.1-.1.1c-.2 0-.2-.1-.2-.1-.5 0 .2.2-.4.1h.1-2c-.4-.1.6-.1.2-.2-.5 0-.9.1-1.4.2-.1 0-.3.1-.4.2-.1 0-.1.1-.2.1l-.1.1s0 .1.1.1v-.1c.1.1.2.2.3.2 0 0 0 .1.1.1.1.1.1.1.2.1h-.5c-.5 0-.9-.2-1.3-.5.8 0-.2-.3.7.1-.3-.2-.5-.3-.7-.4.1.1.3.1.4 0h-.2c.1 0 .3-.1.4-.1v.2h.3c.1 0 .2 0 .3-.1.2-.1.4-.1.6-.2h.1c.4 0 .8-.1 1.2-.2h.2c-.2 0-.4.1-.3.1l1.3-.1-.1-.1h.5c.1 0 .2.1.3.1v-.1h.8c.6.3 1.9.1 2.6.4v-.1c.2 0 .2.1.4.1 0-.1-.2-.1-.1-.1 1.6.2 3.3.5 4.8 1 .6.2.4-.3 1.1.1l-.2.1c1.2.3 2.3.7 3.4 1.3h-.2c.2.2.5.4.8.4.2.1 0 .1.1.2.2.2.6.3.7.4h-.1c.2.1.6.5.6.3.1.1.3.2.4.4l-.1.1c-.2-.7-.3-.8-.3-.9zm-16.9-2.8zm3.3.9c0 .1 0 .1 0 0 0 .1 0 .1 0 0l-.2.1s-.1 0-.1-.1h.3zm-12-3.5c.1-.1 0-.2.7-.3 0 .1.3 0-.1.1.5-.1.7-.1.8-.3.2.1.4.1.6 0h-.3c.2-.1.3-.1.5-.2v.2h.4c.2 0 .3-.1.4-.1.3-.1.5-.2.8-.3.3-.1.5-.2.8-.3-.1 0-.1.1-.2.1-.3.2-.7.7-.6.7.1-.1.3-.2.4-.1l-.2.2c.1.1.1.3.2.3h-.1.2c-.2.1-.4.1-.4.1-.2.2-.5.3-.8.5l-.1.1.1-.1c-.8-.4-1.8-.6-2.7-.5h-.9c.2-.1.3-.1.5-.1zm21.9-3.3s.1.1.2.1l-.2-.1zm-3.5.1l-.3-.1h.2l.1.1zm-.4 0c.1 0 0 0 0 0zm-.1.1h-.2.2zm.9-.2s-.1.1-.2 0c.1.1.1 0 .2 0zm-9.9 1.3c0 .1-.3.2-.5.3-.6.1-1.2.2-1.8.4-.4.2-.1.1-.3.3-.1-.1-.7.1-.4 0 0 0 0 .1.2 0 .2-.2-.3-.1 0-.3.3 0 .2.1.5-.1.1 0 0 .1-.1.2.2-.2.6-.3.7-.5.3 0 .8-.4.8-.2l.2-.2h.3c.3 0 .7-.1.7 0s-.1.1-.3.1zm5.9 1.5h1.4s0 .1.3.1c.2.1-.2.1-.2.1.4.1.2-.1.3-.2h.2c.2.1 0 .1.2.2-.1 0-.3 0-.4.1-.5-.1-1-.1-1.5-.1.3.1.2.2 0 .2l-.1-.1c-.1.1.2.1 0 .1-.3 0-.2-.2 0-.2h-.3l.1-.1c-.1.1-.6-.2-.8 0h-.8c.3-.1 1-.1 1.6-.1zm11.8 5.8c-.1-.1-.1-.2-.2-.2-.4-.3-.8-.6-1.1-.8h.1c-.4-.4-.4 0-.9-.4-.2-.3.3.1.2 0 0-.3-.7-.4-1-.7h.1c-.4-.2-.8-.4-1.2-.5-.5-.1-1-.2-1.4-.4.2-.1.2 0 .1-.1-.2-.1 0 .2-.4.1-.1-.1-.4-.2-.4-.3h.2l.2.1c.4.1.7.1.9.1l1.5.6h-.2c.4.2.6-.1.9.1l.1.2c.6.3 1.2.8 1.9 1.1h-.2c.3.2 1 .8 1 .6 0 0 0 .1.1.1-.1.1-.2.2-.3.4zm-21.6-6.6h.3c-.3.1-.3 0-.3 0zm1 .4l-.2.1.2-.2v.1zm11.3.6c-.1 0-.3.1-.2.1-.2 0-.2-.1-.1-.1h.7s.1 0 0 .1c.2 0 .5 0 .7.1-.2.1-.3.1-.5.2h-.2c-.1-.1-.3-.1-.5-.1h-.1c.1-.2.1-.2.2-.3zm3.8 1.2h-.4.1c.1-.1.2 0 .3 0zm-5-.1h.3-.3zm-2.1-.2h-.2.2zm-7.5 0h-.1.1c.2-.2.1-.1 0 0zm-.3 0zm1.7-.3c.1.1.2.1.2.1-.1.1-.3 0-.3 0-.2.1-.4.2-.7.3-.1 0-.2 0-.3-.1.3-.2.7-.3 1.1-.3zm-1.1.4h.2-.2zm9.9.2h-.3.1c0-.1.1-.1.2 0h.1-.1zm1.8.3zm-.1 0h-.2l-.1-.1c.2 0 .2.1.3.1zm-.7-.3s.1.1.2.1h-.8c.2-.2.6-.1.2-.2.1 0 .4 0 .4.1zm.8.2v-.1c.2.1.4.2.6.2-.2 0-.4 0-.6-.1zm4.2.5l-.1-.1.1.1c0-.1 0-.1 0 0zm-11.1-1.8h-.4.4zm-1.8.2zm-6.8.7zm1.7.6h.4c-.1 0-.2.1-.3.1l-.1-.1zm12.2-.1h-.2.2zm7.9 1h.1l.2.1c-.1 0-.2-.1-.3-.1zm-.4-.1c-.1-.1-.1-.1 0 0zm-.2-.2s0-.1 0 0c0-.1 0-.1 0 0zm-2.7-.9h-.3v-.1h.2s0 .1.1.1zm-12.9-3.1s.1 0 .1-.1c0 0-.1 0-.1.1zm.6-.1h.3-.3zm-3.8.8c-.1 0-.7.1-.5-.1h.7l-.2.1zm20.6 7l.2.2c-.1 0-.1-.1-.2-.2zm1.5-1.5c-.1 0-.2-.1-.3-.2h.1c-.5-.5-.8-.5-1.2-.8v-.1c.4.3.8.6.7.5.1-.1-.3-.3.1-.3l-1.2-.6v-.1c-.1-.1-.1-.1-.2-.1-.1-.1-.2-.1-.3-.2l.3.2c.6.3.8 0 1.5.2-.2 0 .1.2-.4.1.2.1.4.2.4.1.1.1.6.1.8.2.1 0 .1 0 .2-.1h.3c-.3.4-.6.8-.8 1.2zm.6-1.9zm-8.9-2.8c-.2 0-.3-.1-.5-.1.2-.1.4-.1.6 0l-.1.1zm-9.7-1.6c.2 0 .4-.1.5-.1-.1.1-.3.1-.5.1.1 0 .1 0 0 0zm1.5-.3c.1-.1.1-.1.2-.1 0 0-.1.1-.2.1zm4.2-.5c0-.1 0-.1.2-.2.3 0 .9-.2 1 0-.5 0-.4.1-.4.1-.2.1-.5.1-.8.1zm2.4-.1s0 .1 0 0c-.2.1-.4.1-.6.2.2-.2.4-.2.6-.2zm4.2.6c-.2 0-.2-.1-.3-.1.1 0 .2.1.3.1zm2.4.1c-.1 0-.3.1-.4.1-.2-.2-.4-.4-.7-.5h.1-.1c-.1 0-.1-.1-.2-.2-.2 0-.4-.1-.6-.2.4 0 .8 0 1.2.1l-.1.4c.1.1.3.1.4.1l.1.1s.1 0 .3.1l.6.2c-.2 0-.5-.1-.6-.2zm.2-.1h.2c.1 0 .1.1.1.1l-.3-.1zm-16.2 5.7h.2-.2zM128.1 144v.1l-.5.2c.1 0 .3-.1.5-.3zm36.2-19.1c-.4.1-.1-.3.2-.7.3-.4.6-.8.2-.6-2.2 2.8-4.5 5.8-7.2 7.9l.5-.4c.1.4-.5.8-1.2 1.2-.8.4-1.5.8-2.2 1.5.3-.3.2-.7.2-.5-2 1.2-3.8 2.9-6.9 4.7l.3-.4c-1.3.5-3.3 1.5-4.7 2-.3.4-1.1.7-.6.7-2.2.3-4.3.9-6.4 1.7l-.8.3-.9.3c-.6.2-1.3.4-1.9.6-1.3.4-2.6.7-3.9.9.1-.1.2-.2.3-.2 0 0 .1 0 .1-.1.2-.2.4-.2.7-.2l-.1.1c1.5-.9 0-.5.9-1.5l1.2.6v-.5c.2-.1.5-.2.5 0 .4-.6-.2-.1 0-.5.9 0 1.9-1.3 2.4-.8.1-.4-.8.2-.2-.5.6.5.8-.7 1.6-.8 0 .4-.7.7.1.5 0-.8 1.3-.8 1.8-1.3-.3-.4 1-1.1 1.7-1.9 0 .1.5-.2 1-.6.5-.4 1.1-.9 1.6-1.2v.1c-.2-.5.5-1.2.9-1.9.2.2.2.4 0 .8.2-.2.3-.4.5-.6 0-.3.1-.6.3-.9l.2.4c.6-.8.8-1.8 1.8-2.7-.3-.3-1.4.2-.9-1 .2.1.5.2.4.6 0-.1.1-.4.3-.6v.6c.4-.4-.1-.4.2-.8.2.2.4-.2.5 0 0 .1-.3.3-.3.5.3-.4.7-.7 1.1-.9-.2 0-.3-.2-.2-.5.5-.8.5-.1.9-.5 0-.3.4-.7.1-1 .1-.2.3-.2.5-.2.1-.5 1.1-2.1.4-1.8l-.1.1v-.1c.1-.4.2-.7.4-1l.6-.9c.5-.6 1-1.1 1.4-1.7l.4-.5c.6.1 1.1.2 1.6.5h-.2l.7.2c0-.1-.1-.1-.2-.2.2 0 .3 0 .5.1-.3 0 0 .1.1.2v-.1c.4.3.1-.2.6.1.2 0 .4.1.6.1.1.1-.2 0-.2.1.3.1.6 0 .9.2-.1 0-.3-.1-.4-.1.2.1.3.2.5.3l.5.2-.1-.1c.4-.1.8.2 1.3.2-.5 0-.1.1-.2.2.1.1.3.2.2.2.3 0 .4.2.7.2 0 0 .2.1.2.2.3.1-.1-.1 0-.1.5.1 2.1 1 2 .8-.3-.3-.3-.3-.3-.2 0 0 0 .1-.3 0 0-.2-.1-.3-.2-.4l-.1.1c-.1 0-.2-.1-.2-.1-.3-.1 0 .1-.1.1-.3-.2-.9-.3-1-.5-.1 0 .3.2-.1.1-.1-.2-.4-.1-.7-.3.1-.1.4.1.1-.1-.2.1-.6-.2-.9-.3 0 .1-.6-.1-1-.2 0 0-.8-.3-1.2-.5-.1.1-.5 0-.8-.1 0-.1.1-.1.3-.1l-.3-.1h-.4l.1-.1c-.4-.1-.9-.2-1.3-.3 0 .1.4.4-.2.3 0-.1 0-.2.1-.1-.1 0-.2 0-.3-.1h.2c-.2-.1-.1 0-.3 0 0 0 0-.1-.1-.1h.2c-.1 0-.1 0-.2-.1l.1-.1h-.3l-.1-.1h.1c-.1-.1-.1-.1-.3-.2.2-.1.4-.1.6-.1-.4 0 0 .2.2.2v-.1c.5.2.1-.2.7 0v.1h.7c.1.1-.3 0-.3.1.4 0 .7-.2 1 0h-.5c.2.1.4.2.7.2l.6.1-.2-.1c.5-.3.9 0 1.5-.1-.6.1-.1.1-.2.2.2.1.4.1.3.2.3-.1.5.2.9 0 0 0 .3 0 .2.2.4 0-.1-.1 0-.1.6 0 2.5.7 2.5.4-.3-.3-.4-.2-.4-.2s0 .1-.3 0c-.1-.2-.2-.3-.3-.5l-.1.1c-.1 0-.2-.1-.2-.1-.3 0 0 .1-.2.1-.4-.2-1.1-.2-1.2-.4-.2.1.4.1-.1.1-.1-.3-.5 0-.9-.2.1-.1.5 0 .1-.2-.2.2-.7-.1-1.1-.1 0 .2-.7 0-1.2 0l-1.5-.3c-.1.2-.6.1-1 .1 0-.1.1-.1.3-.2h-.4c-.1.1-.3.1-.4.1l.1-.1H150c0 .1.2.2.1.3-.2 0-.3-.1-.2 0h-.1c0-.1 0-.1.1-.1h-.3l.2-.1c-.2-.1-.2 0-.3.1 0-.1-.2-.1-.1-.1s.2.1.3 0c-.2 0-.4-.1-.6-.2 0 .1 0 .1-.2.1h-.1c-.1 0-.1-.1-.2-.1 0 0 0-.1-.1-.1-.2 0-.4-.1-.5-.2l-.3-.1c-.1-.1-.1-.1-.1-.2h.6c.1-.1 0-.1.5-.1 0 .1.2.1-.1.1.3 0 .4.1.5 0 .1.1.2.1.3.1-.1 0-.1-.1-.2-.1h.3v.1h.5c.2 0 .3 0 .5-.1.3-.1.6 0 .9.1.2-.1-.4-.1-.3-.2l.9.3c.5.1.4-.2 1-.1-.1-.1-.1-.2.2-.2.4.1.5.2.2.3h-.1c-.1 0-.3 0-.1.1.2.1.7.1.6.2.3 0 .1-.1-.1-.1.5.1.7.1 1.2.2-.1 0-.1-.1-.1-.1.7.2.3 0 .8 0 .3.1-.1.2.4.2.3.1.1.1-.1.2.4 0 .7.1 1.1.3h-.2.4l-.1-.1c.1 0 .2.1.2.1.1 0-.1-.2.2-.2.2.1.6.1.6.2-.6-.2.1.1-.4.1.1 0 .2 0 .3.1h-.1c.5.2.3-.1.8 0-.1.1.1.2.2.2-.2-.1-.1-.1.1-.1.4.1.4.1.6.1l-.2-.1c.1 0 .3 0 .5.1 0 .1-.2 0-.1 0 .3 0 .6.3 1 .4.2.1 0 .1.1.2.4.1.4.3.9.4-.1-.1-.1-.1.2-.1l-.7-.3.5.1c-.2-.1-.5-.2-.6-.2.2 0 .2 0 .1-.1.3.3.6.2.9.4l-.1.2c.5.3.9.3 1.6.8l-.2-.2c.1 0 .4.2.6.3 0 .1.1.2.1.2 0-.1.5.3.6.2l.2.2v.4l.2-.3c.1 0 .1.1.2.1 0 .3-.5.9-1.1 1.5zm4.4-5.6c.1-.2 0-.1.2-.5-.1.1-.2.3-.3.4-.1-.1-.1-.1-.1 0 0-.5-.5-.8-.9-1.1-.4-.2-.7-.5-1-.8-.5-.2-.9-.4-1.4-.6h.1c-.5-.3-.4.1-1.1-.3-.3-.3.4.1.2-.1 0-.3-.8-.3-1.2-.6h.1c-.5-.2-1-.3-1.5-.3h-1.7c.2-.1.3 0 .2-.2-.3 0 .1.2-.4.2-.2-.1-.5-.2-.6-.3h.5c-.2-.2-.6 0-.9-.1v-.1c-.7 0-.7.2-1.5.2l.1.1c-.4.2-.4-.1-.8 0l-.1-.2c-.2 0-.8.2-1.3.2h-.1c.4-.1.8-.2 1.1-.3-.4 0-.7 0-1.1.1.1 0 .2-.1.4 0-.2.1-.4.2-.7.2h-.7c-.3-.1-.5-.1-.8 0h-.5c-.2 0-.4 0-.5-.1-.5.1-.9.2-1.4.2.2-.1.5-.2.8-.2.7.1 2.1-.3 3.2-.2-.2 0 0-.2.2-.2s.7-.2.6 0h-.1c.2.2.7.1 1.1.1l.1-.2c1 .3 2.7-.1 3.2.3h.8v.1l1.8.4-.2.1c.5.1.7-.2 1.1-.1l.1.2c.8.2 1.5.7 2.3.8 0 0-.1.1-.2 0 .4.1 1.3.7 1.3.4-.1.2.7.4 1.2.5l-.1.1c.2 0 .4 0 .5.1l.1.1.1.1.2.1c.1 0 .2.1.2.1h-.3c.1 0 .2.1.2.1-.8 1.1 1.1-.7-.5 1.3zm1.8-2.6c.1-.3-.1-.5-.3-.4v.8c-.3.4-.5.5-.6.5.1-.1.1-.2.1-.3 0-.1 0-.1-.1-.2 0-.1-.1-.1-.2-.1h-.2c-.1-.1-.2-.1-.2-.2l.2.1c-.2-.2-.4-.3-.6-.3-.3-.1-.7-.5-.7-.6-.2 0-.4 0-.6-.2 0-.1.1 0 .1 0-.6-.4-1-.4-1.5-.7v-.1c.3.1.6.3.9.5.1-.1-.4-.3 0-.3-.5-.1-1-.2-1.5-.4v-.1c-.1 0-.2-.1-.3-.1-.1-.1-.2-.1-.3-.2l-.1-.1c.5 0 1.1.1 1.6.3l-.4-.2c.2-.1.7.1 1.1.2-.1.1.2.2.3.3 0-.1.9.2 1 0l.5.3c.9.3 1.2-.1 2.1.2-.3.1.1.3-.5.2.2 0 .3.1.5.1-.1.2-.2.6-.3 1zm5.1-8.5c.1 0 .1 0 0 0s-.1 0-.1-.1c.2 0 .1-.1 0-.2s-.2-.1-.3-.2l.7-.7c-.1.4.1.3.3.3.1.1.1.1-.6.9z" data-color="1" class="icon1"></path><path d="M144.9 67.7c0-.1 0-.1 0 0z" data-color="1" class="icon1"></path><path d="M48 137.1c.1 0 .1.1.2.1l-.3-.3h-.3l.4.2z" data-color="1" class="icon1"></path><path d="M146.8 139.8h-.2.2z" data-color="1" class="icon1"></path><path d="M125.1 145.9c.1 0 .1-.1 0 0-.1-.1-.1-.1 0 0z" data-color="1" class="icon1"></path><path d="M160.8 130.8l.1.4c.7-.8-.1-.2-.1-.4z" data-color="1" class="icon1"></path><path d="M171.6 119l.8-1.5-.6 1.1c0 .1-.1.2-.2.4z" data-color="1" class="icon1"></path><path d="M137.3 68l.4.3c.6-.3.6-.8-.4-.3z" data-color="1" class="icon1"></path><path d="M110.5 65.6c.5.7.8 1.6 1.1 1.9-.2-.8-.6-1.4-1.1-1.9z" data-color="1" class="icon1"></path><path d="M54.1 99.2h.2v-.1c-.1.1-.1.1-.2.1z" data-color="1" class="icon1"></path><path d="M118.4 146l.1-.5-.5.3c-.1.1.1.3.4.2z" data-color="1" class="icon1"></path><path d="M120.3 145.7c-.3.2-.7 0-.7-.1-.1.2-.6.1-.7.4.6.2 1.3 0 1.7-.4.2.1.1.2.1.3.4-.3.7-.9.4-1.2-.3.5-.5.3-.8 1z" data-color="1" class="icon1"></path><path d="M133 116.3c.2 0 .3-.1.3-.1-.2.1-.3.1-.3.1z" data-color="1" class="icon1"></path><path d="M131 115.9c.1 0 .1 0 0 0z" data-color="1" class="icon1"></path><path d="M149.7 124.5l.4-.5c-.1-.1-.3.3-.4.5z" data-color="1" class="icon1"></path><path d="M125.4 143.4c-.1.1-.2.1-.3.2l.3-.2z" data-color="1" class="icon1"></path><path d="M144.4 133.4l-.1.1v.2l.1-.3z" data-color="1" class="icon1"></path><path d="M138.6 138.4c0 .2 0 .3-.1.5l.2.2c.2-.2 0-.5-.1-.7z" data-color="1" class="icon1"></path><path d="M74.4 142.4s.1 0 0 0z" data-color="1" class="icon1"></path><path d="M82.5 146.7h-.1c0 .1-.1.1-.1.2l.2-.2z" data-color="1" class="icon1"></path><path d="M125.6 143.4c.1 0 .2-.1.3-.1-.1 0-.2 0-.3.1z" data-color="1" class="icon1"></path><path d="M58.6 132.3c.2-.3.8.4.1-.5 0 .2 0 .3-.1.5z" data-color="1" class="icon1"></path><path d="M125.6 143.4l-.2.1c0 .1 0 .1.1.1-.1-.1 0-.2.1-.2z" data-color="1" class="icon1"></path><path d="M123.1 99.2l-.9.3c.2 0 .6-.1.9-.3z" data-color="1" class="icon1"></path><path d="M72 107.2v-.2.2z" data-color="1" class="icon1"></path><path d="M119.5 100.9h-.6s0 .1-.1.1l.7-.1z" data-color="1" class="icon1"></path><path d="M100.2 90.2s.1 0 0 0c.1 0 .1 0 0 0z" data-color="1" class="icon1"></path><path d="M122.3 145.1h-.1.1z" data-color="1" class="icon1"></path><path d="M115.6 103.2l-.1.1.1-.1z" data-color="1" class="icon1"></path><path d="M149.4 124.8c0-.1.1-.1 0 0 .1-.1 0-.1 0 0z" data-color="1" class="icon1"></path><path d="M72.1 109.1H72l.1.2v-.2z" data-color="1" class="icon1"></path><path d="M142.3 133h-.2.2z" data-color="1" class="icon1"></path><path d="M136.2 138.2v.2-.2z" data-color="1" class="icon1"></path><path d="M129 106.4v-.1c-.1-.4-.1-.2 0 .1z" data-color="1" class="icon1"></path><path d="M135 117.9c-.2.1-.4.1-.5.2.3 0 .5 0 .5-.2z" data-color="1" class="icon1"></path><path d="M123.2 99.2h-.1.1z" data-color="1" class="icon1"></path><path d="M133.7 118c.3.1.5.1.8 0h-.8z" data-color="1" class="icon1"></path><path d="M122.1 144.2h.2-.2z" data-color="1" class="icon1"></path><path d="M121.9 144.4c.1 0 .2 0 .2-.1l-.2.1z" data-color="1" class="icon1"></path><path d="M121.5 144.6l.4-.2c-.2 0-.3 0-.4.2z" data-color="1" class="icon1"></path><path d="M126.9 142.8v.1c.1-.3 1.1 0 1.3-.3-.5 0-.9.1-1.3.2z" data-color="1" class="icon1"></path><path d="M134.3 141.5c-.4.2-.8.3-1.1.5.3 0 .6.1.1.4 1.6-.3-.4-.1 1-.9z" data-color="1" class="icon1"></path><path d="M137.7 139.6c-.5.5.1.2.2.3.2-.4.2-.5-.2-.3z" data-color="1" class="icon1"></path><path d="M142.8 119.4c-.2 0-.5-.1-.7-.1l.4.3.3-.2z" data-color="1" class="icon1"></path><path d="M147 113.6c0 .1.1.1.1.2-.1-.1-.1-.1-.1-.2z" data-color="1" class="icon1"></path><path d="M147 113.6v.2-.2z" data-color="1" class="icon1"></path><path d="M141.9 114.9c.1 0 .1-.1.2-.1l-.2.1z" data-color="1" class="icon1"></path><path d="M137.1 114.1c.1.1.1.2 0 .2.1 0 .1.1.2.1.2 0-.1-.2-.2-.3z" data-color="1" class="icon1"></path><path d="M141.7 114.9h-.2c.1.1.1.1.2 0z" data-color="1" class="icon1"></path><path d="M152 107.1h.2-.2z" data-color="1" class="icon1"></path><path d="M141.8 114.8s0 .1-.1.1l.1-.1c0 .1 0 .1 0 0z" data-color="1" class="icon1"></path><path d="M158 107.8l-.8.1c.3-.1.5-.1.8-.1z" data-color="1" class="icon1"></path><path d="M158 103.7c-.1-.1-.1 0-.2 0h.2z" data-color="1" class="icon1"></path><path d="M136.9 113l-.4.2c.2 0 .3-.1.4-.2z" data-color="1" class="icon1"></path><path d="M135.2 114.1c0 .1 0 .1 0 0z" data-color="1" class="icon1"></path><path d="M144.4 114.6c0-.1-.1-.1 0 0h-.1.1z" data-color="1" class="icon1"></path><path d="M144.5 114.5h-.1.1z" data-color="1" class="icon1"></path><path d="M136.7 114.7c-.3.2.2.1.2.1.1-.1.1-.2-.2-.1z" data-color="1" class="icon1"></path><path d="M152.8 106.8l.3.2c.2-.1 0-.4-.3-.2z" data-color="1" class="icon1"></path><path d="M157.8 121.5c-.1.1 0 .2.2.2l-.2-.2z" data-color="1" class="icon1"></path><path d="M167.5 114.9l-.1-.1.1.1z" data-color="1" class="icon1"></path><path d="M170.1 112.5l.2.1-.2-.1z" data-color="1" class="icon1"></path><path d="M173 115.6s0-.1 0 0c0-.1 0-.1 0 0z" data-color="1" class="icon1"></path><path d="M151 117.9h.1c0 .1-.1.1-.1 0z" data-color="1" class="icon1"></path><path d="M158.9 112.1h.1c.3-.1.1-.1-.1 0z" data-color="1" class="icon1"></path><path d="M147.2 114c.1-.1.2-.1.3-.2-.1 0-.3.1-.3.2z" data-color="1" class="icon1"></path><path d="M147.6 113.8c.2 0 .4-.1.5-.1-.2 0-.4 0-.5.1z" data-color="1" class="icon1"></path><path d="M160.6 121.3h.1-.1c0-.1 0 0 0 0z" data-color="1" class="icon1"></path><path d="M140.4 116.6h.5c.1-.1-.2 0-.5 0z" data-color="1" class="icon1"></path><path d="M141.8 115c0 .1-.1.1-.1.2l.6-.2h-.5z" data-color="1" class="icon1"></path><path d="M170.9 112.7v.2c.3.1.4 0 0-.2z" data-color="1" class="icon1"></path><path d="M156.3 110.4h.8c-.2-.1-.5-.1-.8 0z" data-color="1" class="icon1"></path><path d="M156.8 109.9l-.3.1.5-.1h-.2z" data-color="1" class="icon1"></path><path d="M157.4 123.1l-.1-.1c-.1.1-.1.2.1.1z" data-color="1" class="icon1"></path><path d="M152.2 119.5h.2-.2z" data-color="1" class="icon1"></path><path d="M155.9 120c.1 0 .1-.1.2-.1v-.1c-.1 0-.2.1-.2.2z" data-color="1" class="icon1"></path><path d="M144.1 116.2v-.1.1z" data-color="1" class="icon1"></path><path d="M167.9 119.7c0-.1 0-.1 0 0-.1 0-.2 0-.2-.1.1 0 .1 0 .2.1z" data-color="1" class="icon1"></path><path d="M166.6 117.2l.1.1-.1-.1z" data-color="1" class="icon1"></path><path d="M169.3 116.8c.1 0 0 0 0 0z" data-color="1" class="icon1"></path><path d="M165 117.5c-.1 0-.1 0 0 0z" data-color="1" class="icon1"></path><path d="M152.7 120.2s.1 0 0 0c.1 0 .1 0 0 0z" data-color="1" class="icon1"></path><path d="M155 120.4l.3.1c-.1-.1-.2-.1-.3-.1z" data-color="1" class="icon1"></path><path d="M159.1 120.3c-.7-.3.1.1-.6 0l.6.2c-.1-.1-.2-.2 0-.2z" data-color="1" class="icon1"></path><path d="M156.7 119.9c-.3 0-.3 0 0 0 .3.1-.1 0 0 0z" data-color="1" class="icon1"></path><path d="M148.2 118.2l.4-.1-.3.1h-.1z" data-color="1" class="icon1"></path><path d="M167.2 117.4v.2c.1.1.2-.1 0-.2z" data-color="1" class="icon1"></path><path d="M157 115c.2 0 .4.1.6 0h-.6z" data-color="1" class="icon1"></path><path d="M157.2 114.8h.4-.4z" data-color="1" class="icon1"></path><path d="M158.4 124.8l-.1-.1s0 .1.1.1z" data-color="1" class="icon1"></path><path d="M154.4 120.8h.1-.1z" data-color="1" class="icon1"></path><path d="M157.4 121.9h.2v-.1c-.1 0-.2.1-.2.1z" data-color="1" class="icon1"></path><path d="M158.3 120c-.1 0 0 0 0 0z" data-color="1" class="icon1"></path><path d="M164.7 122.4s0 .1 0 0c0 .1 0 0 0 0z" data-color="1" class="icon1"></path><path d="M166.5 121.6l.1.1-.1-.1z" data-color="1" class="icon1"></path><path d="M156.6 122.1l.3.1c-.1-.1-.2-.1-.3-.1z" data-color="1" class="icon1"></path><path d="M160 119.4c.2.1.1 0 0 0z" data-color="1" class="icon1"></path><path d="M153 118.5h.2c-.2-.1-.2-.1-.2 0z" data-color="1" class="icon1"></path><path d="M153.2 118.5h.3-.3z" data-color="1" class="icon1"></path><path d="M160.1 122.8c-.6-.4.1.1-.5-.1l.5.1c-.2 0-.3-.1 0 0z" data-color="1" class="icon1"></path><path d="M158 121.9c-.1 0-.2 0 0 0 .3.2 0 .1 0 0z" data-color="1" class="icon1"></path><path d="M148.7 118.8l.3.1s-.1 0-.3-.1z" data-color="1" class="icon1"></path><path d="M149.5 118.3h.4c-.1 0-.2 0-.2-.1-.1 0-.1 0-.2.1z" data-color="1" class="icon1"></path><path d="M151.2 119h.3-.3z" data-color="1" class="icon1"></path></g></g>
</svg>
</g><g opacity="1" transform="rotate(0 493.9356 317.9231)">
<svg width="366.0702" height="90" x="493.9356" y="317.9231" version="1.1" preserveAspectRatio="none" viewBox="4.8 -28.48 117.8 28.96">
  <g transform="matrix(1 0 0 1 0 0)" class="companyName"><path id="id-D6z1nYkh4" d="M29.20-28L27.36-28L27.36-6.60L27.20-6.60L5-28.48L4.80-28.48L4.80 0L6.64 0L6.64-21.40L6.80-21.40L29 0.48L29.20 0.48L29.20-28Z M56.88-28L38.80-28L38.80 0L56.88 0L56.88-2.20L42.44-2.20L42.44-13.92L54.84-13.92L54.84-15.76L42.44-15.76L42.44-25.80L56.88-25.80L56.88-28Z M62.96-28L59.28-28L69.20 0L71.60 0L79.24-21.88L79.44-21.88L86.84 0L89.20 0L99.12-28L97.28-28L89-4.64L88.84-4.64L81.04-28L79.32-28L71.36-4.76L71.20-4.76L62.96-28Z M104.52-7.08L101.80-7.08Q101.88-5.36 102.70-3.96Q103.52-2.56 104.94-1.58Q106.36-0.60 108.28-0.06Q110.20 0.48 112.48 0.48L112.48 0.48Q114.80 0.48 116.66-0.08Q118.52-0.64 119.84-1.68Q121.16-2.72 121.88-4.20Q122.60-5.68 122.60-7.48L122.60-7.48Q122.60-9.96 121.36-11.54Q120.12-13.12 118.26-14.18Q116.40-15.24 114.22-15.96Q112.04-16.68 110.18-17.48Q108.32-18.28 107.08-19.32Q105.84-20.36 105.84-22.08L105.84-22.08Q105.84-23.04 106.26-23.88Q106.68-24.72 107.50-25.34Q108.32-25.96 109.52-26.34Q110.72-26.72 112.28-26.72L112.28-26.72Q114.88-26.72 116.70-25.62Q118.52-24.52 118.84-22.16L118.84-22.16L121.56-22.16Q121.32-23.64 120.48-24.82Q119.64-26 118.36-26.82Q117.08-27.64 115.46-28.06Q113.84-28.48 112.08-28.48L112.08-28.48Q110.24-28.48 108.58-28Q106.92-27.52 105.66-26.60Q104.40-25.68 103.66-24.28Q102.92-22.88 102.92-21.08L102.92-21.08Q102.92-18.72 104.12-17.28Q105.32-15.84 107.14-14.88Q108.96-13.92 111.08-13.24Q113.20-12.56 115.02-11.70Q116.84-10.84 118.04-9.60Q119.24-8.36 119.24-6.28L119.24-6.28Q119.24-3.68 117.34-2.48Q115.44-1.28 112.28-1.28L112.28-1.28Q109.76-1.28 108.24-1.94Q106.72-2.60 105.92-3.52Q105.12-4.44 104.84-5.42Q104.56-6.40 104.52-7.08L104.52-7.08Z"/></g>
</svg>
</g><g opacity="1" transform="rotate(0 458.9356 302.9231)">
<svg width="3" height="120" x="458.9356" y="302.9231" version="1.1" preserveAspectRatio="none" viewBox="0 0 3 120">
  <defs><rect x="0" y="0" width="3" height="120" rx="0px" ry="0px" id="id-tBXipXk0b1702182573332"></rect></defs><use class="companyName shapeStroke-str" style="stroke-width:0;" xlink:href="#id-tBXipXk0b1702182573332"></use>
</svg>
</g></svg></svg>